<svg width="26" height="27" viewBox="0 0 26 27" fill="none" xmlns="http://www.w3.org/2000/svg">
<path d="M12.812 25.075C12.7498 25.0798 12.6874 25.0708 12.6292 25.0484C12.571 25.0261 12.5187 24.9911 12.476 24.9461C12.3651 24.7351 12.3422 24.4895 12.412 24.2619V24.2381C12.444 24.0527 12.589 23.1852 12.591 23.1772C12.6679 22.8059 12.6541 22.4218 12.551 22.0568C12.413 21.7178 11.876 21.5373 11.451 21.4451C10.0094 21.2616 8.60417 20.8628 7.283 20.2622C6.06467 19.7085 4.9467 18.9594 3.974 18.0452C3.06066 17.194 2.31912 16.1782 1.789 15.0519C1.27021 13.9438 1.00098 12.737 1 11.5153C1 5.96982 6.607 1.45752 13.5 1.45752C20.393 1.45752 26 5.96982 26 11.5153C26.0037 12.6115 25.779 13.6967 25.34 14.7029C25.1084 15.2321 24.8286 15.7392 24.504 16.2179C24.1477 16.7423 23.7523 17.2394 23.321 17.7052C22.5666 18.538 21.7463 19.3099 20.868 20.0134C19.998 20.7272 19.009 21.4689 17.928 22.2155C16.778 23.0087 15.828 23.6036 15.228 23.9615C14.6712 24.3086 14.0938 24.6221 13.499 24.9005C13.2832 25.0011 13.0501 25.0603 12.812 25.075ZM18.33 8.83524C18.2666 8.83524 18.2058 8.86021 18.161 8.90465C18.1162 8.94909 18.091 9.00936 18.091 9.07221V14.4808C18.091 14.5437 18.1162 14.6039 18.161 14.6484C18.2058 14.6928 18.2666 14.7178 18.33 14.7178H21.842C21.9054 14.7178 21.9662 14.6928 22.011 14.6484C22.0558 14.6039 22.081 14.5437 22.081 14.4808V13.6024C22.081 13.5395 22.0558 13.4792 22.011 13.4348C21.9662 13.3904 21.9054 13.3654 21.842 13.3654H19.455V12.4522H21.842C21.9054 12.4522 21.9662 12.4273 22.011 12.3828C22.0558 12.3384 22.081 12.2781 22.081 12.2153V11.3368C22.081 11.3057 22.0748 11.2749 22.0628 11.2461C22.0508 11.2174 22.0332 11.1912 22.011 11.1692C21.9888 11.1472 21.9625 11.1298 21.9335 11.1179C21.9045 11.1059 21.8734 11.0998 21.842 11.0998H19.455V10.1827H21.842C21.9054 10.1827 21.9662 10.1577 22.011 10.1133C22.0558 10.0688 22.081 10.0086 22.081 9.94572V9.07221C22.081 9.00936 22.0558 8.94909 22.011 8.90465C21.9662 8.86021 21.9054 8.83524 21.842 8.83524H18.33ZM5.34 8.83524C5.30853 8.83511 5.27735 8.84114 5.24823 8.85299C5.21912 8.86484 5.19266 8.88228 5.17036 8.9043C5.14806 8.92631 5.13036 8.95248 5.11829 8.9813C5.10622 9.01011 5.1 9.04101 5.1 9.07221V14.4808C5.1 14.5437 5.12518 14.6039 5.17 14.6484C5.21483 14.6928 5.27562 14.7178 5.339 14.7178H8.85101C8.91439 14.7178 8.97518 14.6928 9.02 14.6484C9.06483 14.6039 9.09001 14.5437 9.09001 14.4808V13.6024C9.09001 13.5395 9.06483 13.4792 9.02 13.4348C8.97518 13.3904 8.91439 13.3654 8.85101 13.3654H6.464V9.07221C6.464 9.00936 6.43882 8.94909 6.394 8.90465C6.34918 8.86021 6.28839 8.83524 6.225 8.83524H5.34ZM13.42 11.2733L15.92 14.6196C15.9366 14.6429 15.9573 14.6631 15.981 14.6791L15.996 14.688H16.002L16.014 14.694H16.026H16.034L16.051 14.6989C16.0713 14.7042 16.0921 14.7069 16.113 14.7069H17C17.0634 14.7069 17.1242 14.6819 17.169 14.6375C17.2138 14.593 17.239 14.5328 17.239 14.4699V9.07221C17.239 9.00936 17.2138 8.94909 17.169 8.90465C17.1242 8.86021 17.0634 8.83524 17 8.83524H16.114C16.0506 8.83524 15.9898 8.86021 15.945 8.90465C15.9002 8.94909 15.875 9.00936 15.875 9.07221V12.2847L13.375 8.94232C13.3692 8.93367 13.3629 8.92539 13.356 8.91754L13.342 8.90266L13.329 8.89176L13.316 8.88283H13.311L13.298 8.87589H13.291L13.277 8.86994H13.269H13.255H13.249H13.235H12.3C12.2366 8.86994 12.1758 8.89491 12.131 8.93935C12.0862 8.98379 12.061 9.04406 12.061 9.10691V14.5155C12.061 14.5784 12.0862 14.6386 12.131 14.6831C12.1758 14.7275 12.2366 14.7525 12.3 14.7525H13.186C13.2174 14.7525 13.2485 14.7464 13.2775 14.7345C13.3065 14.7225 13.3328 14.7051 13.355 14.6831C13.3772 14.6611 13.3948 14.635 13.4068 14.6062C13.4188 14.5775 13.425 14.5466 13.425 14.5155V11.2733H13.42ZM10.079 8.83524C10.0156 8.83524 9.95483 8.86021 9.91001 8.90465C9.86519 8.94909 9.84001 9.00936 9.84001 9.07221V14.4808C9.84001 14.5437 9.86519 14.6039 9.91001 14.6484C9.95483 14.6928 10.0156 14.7178 10.079 14.7178H10.965C11.0284 14.7178 11.0892 14.6928 11.134 14.6484C11.1788 14.6039 11.204 14.5437 11.204 14.4808V9.07221C11.204 9.00936 11.1788 8.94909 11.134 8.90465C11.0892 8.86021 11.0284 8.83524 10.965 8.83524H10.079Z" fill="white"/>
</svg>
