<svg width="26" height="27" viewBox="0 0 26 27" fill="none" xmlns="http://www.w3.org/2000/svg">
<path d="M22.6461 8.0533C22.6601 8.25161 22.6601 8.45587 22.6601 8.65814C22.6723 10.4099 22.3333 12.1465 21.6629 13.7673C20.9925 15.388 20.0039 16.8605 18.7547 18.0992C17.5054 19.3379 16.0204 20.3181 14.3858 20.9828C12.7513 21.6476 10.9998 21.9837 9.2331 21.9715C6.6686 21.9738 4.15765 21.244 2.00012 19.8695C2.3728 19.9137 2.74778 19.9362 3.12312 19.9369C5.24824 19.939 7.31228 19.2321 8.9831 17.93C7.99829 17.9118 7.04385 17.5888 6.2533 17.0062C5.46276 16.4236 4.87565 15.6105 4.57412 14.6808C5.2813 14.8159 6.01031 14.7884 6.70511 14.6004C5.63727 14.3865 4.67695 13.8128 3.98707 12.9768C3.29719 12.1407 2.92023 11.0938 2.92012 10.0136V9.95507C3.57636 10.318 4.31104 10.519 5.06211 10.5411C4.06258 9.87976 3.35491 8.86548 3.08327 7.70485C2.81164 6.54423 2.99647 5.32458 3.60012 4.29437C4.78504 5.7395 6.26314 6.92148 7.93851 7.76361C9.61389 8.60574 11.4491 9.08922 13.3251 9.18266C13.0912 8.17978 13.197 7.12842 13.6262 6.19116C14.0554 5.25391 14.7841 4.48299 15.6996 3.99762C16.6151 3.51226 17.6664 3.3395 18.6908 3.50605C19.7153 3.67261 20.6558 4.16921 21.3671 4.91904C22.425 4.713 23.4397 4.32902 24.3671 3.78373C24.0147 4.8673 23.2773 5.787 22.2921 6.37165C23.2269 6.26068 24.1398 6.01134 25.0001 5.63196C24.3666 6.57157 23.5695 7.39182 22.6461 8.05429" fill="white"/>
</svg>
