<svg width="22" height="23" viewBox="0 0 22 23" fill="none" xmlns="http://www.w3.org/2000/svg">
<path d="M11.001 2.41428C13.938 2.41428 14.286 2.42518 15.446 2.47773C16.1437 2.48595 16.8347 2.61305 17.489 2.85349C17.9669 3.02833 18.3991 3.30716 18.754 3.66946C19.1194 4.02129 19.4006 4.44986 19.577 4.92364C19.8195 5.57229 19.9477 6.25745 19.956 6.94918C20.009 8.09926 20.02 8.44429 20.02 11.3562C20.02 14.2681 20.009 14.6131 19.956 15.7632C19.9477 16.4549 19.8195 17.1401 19.577 17.7887C19.394 18.2592 19.1136 18.6864 18.754 19.043C18.3944 19.3995 17.9635 19.6774 17.489 19.8589C16.8347 20.0993 16.1437 20.2264 15.446 20.2346C14.286 20.2872 13.938 20.2981 11.001 20.2981C8.06398 20.2981 7.71598 20.2872 6.55598 20.2346C5.85829 20.2264 5.16722 20.0993 4.51298 19.8589C4.03512 19.684 3.60286 19.4052 3.24798 19.0429C2.88258 18.6911 2.60136 18.2625 2.42498 17.7887C2.1825 17.1401 2.0543 16.4549 2.04598 15.7632C1.99298 14.6131 1.98198 14.2681 1.98198 11.3562C1.98198 8.44429 1.99298 8.09926 2.04598 6.94918C2.0543 6.25746 2.1825 5.5723 2.42498 4.92364C2.60136 4.44987 2.88258 4.02131 3.24798 3.66946C3.60286 3.30718 4.03512 3.02836 4.51298 2.85349C5.16722 2.61305 5.85829 2.48595 6.55598 2.47773C7.71598 2.42518 8.06398 2.41428 11.001 2.41428ZM11.001 0.449219C8.01298 0.449219 7.63798 0.462108 6.46498 0.514655C5.55249 0.532722 4.6497 0.704026 3.79498 1.02129C3.06073 1.29511 2.3956 1.72448 1.84598 2.27944C1.2866 2.82446 0.85387 3.4839 0.577977 4.21178C0.257962 5.0592 0.0851804 5.95427 0.0669766 6.85896C0.0129766 8.02193 0.000976562 8.39373 0.000976562 11.3552C0.000976562 14.3167 0.0139766 14.6885 0.0669766 15.8514C0.0851804 16.7561 0.257962 17.6512 0.577977 18.4986C0.854291 19.2262 1.28736 19.8853 1.84698 20.43C2.39631 20.9848 3.06109 21.4142 3.79498 21.6881C4.6497 22.0054 5.55249 22.1767 6.46498 22.1947C7.63798 22.2483 8.01298 22.2612 11.001 22.2612C13.989 22.2612 14.363 22.2483 15.536 22.1957C16.4485 22.1777 17.3512 22.0064 18.206 21.6891C18.9367 21.4089 19.6003 20.9804 20.1542 20.4312C20.7082 19.882 21.1404 19.224 21.423 18.4996C21.743 17.6522 21.9158 16.7571 21.934 15.8524C21.987 14.6885 22.001 14.3167 22.001 11.3552C22.001 8.39373 21.988 8.02193 21.935 6.85896C21.9168 5.95427 21.744 5.0592 21.424 4.21178C21.1476 3.48418 20.7146 2.82509 20.155 2.28043C19.604 1.72454 18.9371 1.29479 18.201 1.02129C17.3463 0.704026 16.4435 0.532722 15.531 0.514655C14.362 0.462108 13.988 0.449219 11.001 0.449219Z" fill="white"/>
<path d="M10.9959 5.75391C9.87867 5.75391 8.78649 6.08242 7.85752 6.6979C6.92854 7.31339 6.20449 8.1882 5.77693 9.21171C5.34937 10.2352 5.2375 11.3615 5.45547 12.448C5.67344 13.5346 6.21145 14.5326 7.00148 15.316C7.79151 16.0994 8.79808 16.6328 9.89388 16.849C10.9897 17.0651 12.1255 16.9542 13.1577 16.5302C14.19 16.1063 15.0722 15.3883 15.6929 14.4672C16.3137 13.5461 16.645 12.4631 16.645 11.3553C16.645 9.86969 16.0498 8.44496 14.9904 7.39451C13.931 6.34405 12.4942 5.75391 10.9959 5.75391ZM10.9959 14.9903C10.2707 14.9903 9.5617 14.7771 8.95866 14.3776C8.35563 13.978 7.88561 13.4101 7.60807 12.7457C7.33052 12.0813 7.2579 11.3502 7.39939 10.6449C7.54089 9.93957 7.89013 9.29169 8.40297 8.78317C8.91582 8.27466 9.56921 7.92836 10.2805 7.78806C10.9919 7.64776 11.7292 7.71977 12.3992 7.99497C13.0693 8.27018 13.642 8.73623 14.0449 9.33417C14.4479 9.93212 14.663 10.6351 14.663 11.3543C14.663 12.3186 14.2766 13.2435 13.5889 13.9254C12.9012 14.6073 11.9685 14.9903 10.9959 14.9903Z" fill="white"/>
<path d="M18.192 5.53418C18.192 5.79329 18.1146 6.04658 17.9695 6.26201C17.8245 6.47745 17.6184 6.64536 17.3772 6.74452C17.136 6.84367 16.8705 6.86961 16.6145 6.81906C16.3584 6.76852 16.1232 6.64375 15.9386 6.46053C15.754 6.27732 15.6283 6.04389 15.5774 5.78976C15.5264 5.53563 15.5526 5.27223 15.6525 5.03285C15.7524 4.79347 15.9216 4.58886 16.1387 4.44491C16.3557 4.30096 16.6109 4.22412 16.872 4.22412C17.2221 4.22412 17.5578 4.36215 17.8054 4.60783C18.0529 4.85351 18.192 5.18674 18.192 5.53418Z" fill="white"/>
</svg>
