<svg width="204" height="50" viewBox="0 0 204 50" fill="none" xmlns="http://www.w3.org/2000/svg">
<path d="M0.794434 47.7922V0.973081H13.5225C16.9732 0.901452 20.3165 2.1746 22.8456 4.52333C25.0646 6.64429 26.473 9.47378 26.8274 12.5229C27.1818 15.5719 26.4599 18.649 24.7865 21.2224L23.866 22.6204L25.3092 23.4706C27.7776 24.9275 29.6986 27.1556 30.7762 29.8117C31.8538 32.4677 32.0282 35.4044 31.2726 38.1693C30.517 40.9343 28.8733 43.3741 26.5946 45.1129C24.316 46.8518 21.5288 47.7932 18.6625 47.7922H0.794434ZM6.25859 42.3267H18.3586C20.1754 42.3682 21.9489 41.7701 23.3696 40.637C24.7902 39.5038 25.7676 37.9076 26.1311 36.1271C26.3375 35.0281 26.2992 33.8972 26.0188 32.8147C25.7385 31.7322 25.2229 30.7248 24.5089 29.8643C23.7949 29.0037 22.9 28.3111 21.8879 27.8358C20.8757 27.3604 19.7713 27.114 18.6531 27.1141H6.26062L6.25859 42.3267ZM6.25859 21.6492H13.8683C14.8671 21.6526 15.8568 21.4591 16.7808 21.08C17.7048 20.7008 18.5451 20.1434 19.2537 19.4395C19.9623 18.7356 20.5254 17.899 20.9106 16.9775C21.2959 16.056 21.496 15.0677 21.4993 14.0689C21.5026 13.0701 21.3092 12.0804 20.93 11.1564C20.5509 10.2324 19.9934 9.39207 19.2895 8.68347C18.5856 7.97487 17.7491 7.41185 16.8276 7.02655C15.9061 6.64126 14.9177 6.44124 13.919 6.43792H6.26467L6.25859 21.6492Z" fill="white"/>
<path d="M50.7764 48.4154C43.4153 48.4154 38.2766 43.4179 38.2766 36.2634V24.2424C38.2766 17.6544 44.0001 12.0903 50.7764 12.0903C58.1376 12.0903 63.2756 17.0878 63.2756 24.2424V36.2634C63.2756 42.8513 57.5514 48.4154 50.7764 48.4154ZM50.7764 17.2107C49.8545 17.1972 48.9395 17.3708 48.0865 17.7209C47.2336 18.071 46.4605 18.5904 45.8139 19.2477C45.1674 19.905 44.6608 20.6865 44.3248 21.5451C43.9887 22.4037 43.8303 23.3215 43.859 24.243V36.2641C43.8461 37.1806 44.0156 38.0906 44.3575 38.9411C44.6994 39.7916 45.2069 40.5656 45.8505 41.2183C46.4941 41.871 47.261 42.3892 48.1067 42.743C48.9523 43.0967 49.8598 43.2789 50.7764 43.2789C51.6931 43.2789 52.6006 43.0967 53.4462 42.743C54.2918 42.3892 55.0588 41.871 55.7024 41.2183C56.346 40.5656 56.8535 39.7916 57.1954 38.9411C57.5373 38.0906 57.7067 37.1806 57.6939 36.2641V24.243C57.7334 23.3188 57.5824 22.3962 57.2502 21.5328C56.9181 20.6693 56.4119 19.8834 55.7631 19.2239C55.1144 18.5644 54.3369 18.0453 53.479 17.699C52.6212 17.3527 51.7013 17.1865 50.7764 17.2107Z" fill="white"/>
<path d="M166.871 47.8378V24.2428C166.91 23.3186 166.759 22.396 166.427 21.5325C166.095 20.669 165.589 19.8831 164.94 19.2235C164.292 18.5639 163.514 18.0448 162.656 17.6984C161.798 17.352 160.879 17.1857 159.954 17.2099C159.032 17.1964 158.117 17.3699 157.264 17.7201C156.411 18.0702 155.637 18.5897 154.991 19.247C154.344 19.9044 153.838 20.686 153.502 21.5447C153.166 22.4034 153.007 23.3212 153.036 24.2428V47.8378H147.454V24.2428C147.454 16.7365 154.061 12.0908 160.185 12.0908C167.524 12.0908 172.454 16.9735 172.454 24.2428V47.8378H166.871Z" fill="white"/>
<path d="M181.852 47.8375L181.795 24.2358H187.378L187.435 47.8375H181.852Z" fill="white"/>
<path d="M197.861 47.8375L197.803 24.2358H203.388L203.444 47.8375H197.861Z" fill="white"/>
<path d="M181.816 18.2693V15.4694C181.816 14.7268 182.111 14.0146 182.636 13.4895C183.161 12.9644 183.873 12.6694 184.616 12.6694C185.358 12.6694 186.07 12.9644 186.596 13.4895C187.121 14.0146 187.416 14.7268 187.416 15.4694V18.2693H181.816Z" fill="white"/>
<path d="M197.82 18.2693V15.4694C197.82 15.1017 197.892 14.7376 198.033 14.3979C198.173 14.0582 198.38 13.7495 198.64 13.4895C198.9 13.2295 199.208 13.0233 199.548 12.8826C199.888 12.7419 200.252 12.6694 200.62 12.6694C200.987 12.6694 201.351 12.7419 201.691 12.8826C202.031 13.0233 202.339 13.2295 202.599 13.4895C202.859 13.7495 203.066 14.0582 203.206 14.3979C203.347 14.7376 203.419 15.1017 203.419 15.4694V18.2693H197.82Z" fill="white"/>
<path d="M94.1444 20.9139V12.641H88.5297V21.2178C88.5297 24.9017 86.0883 27.2837 82.3105 27.2837H76.8098V0H71.1924V47.7916H76.8098V32.6479H82.3105C86.6698 32.6479 88.5297 34.4321 88.5297 38.6124V47.7903H94.1478V38.9184C94.1478 34.7988 92.8498 31.7368 90.2889 29.8256L90.0606 29.6561L90.2808 29.4765C91.53 28.4338 92.5267 27.1217 93.1963 25.6387C93.866 24.1558 94.191 22.5404 94.1471 20.9139" fill="white"/>
<path d="M112.957 12.0972C110.835 12.1113 108.751 12.6656 106.903 13.708C105.054 14.7504 103.502 16.2464 102.392 18.055L106.748 21.1345C107.395 19.7082 108.513 18.548 109.914 17.8495C111.316 17.151 112.915 16.9567 114.443 17.2994C115.971 17.6421 117.334 18.5008 118.303 19.731C119.272 20.9612 119.787 22.4876 119.762 24.0533V26.6872H113.414C106.958 26.6872 102.438 29.1096 102.438 36.5869C102.438 43.3025 106.136 47.2485 112.944 47.2485C116.279 47.2485 118.224 46.6663 119.759 44.3925V47.7914H125.251V24.0533C125.251 17.0143 120.194 12.0999 112.953 12.0999L112.957 12.0972ZM112.944 42.1254C109.48 42.1254 107.136 40.6011 107.136 36.7227C107.136 33.2622 108.781 31.3929 113.417 31.3929H119.765V38.2699C118.643 41.5905 116.13 42.1193 112.95 42.1193" fill="white"/>
</svg>
